<svg xmlns="http://www.w3.org/2000/svg" viewBox="0 0 400 400">
  <defs>
    <linearGradient id="bd3" x1="0" y1="0" x2="1" y2="1">
      <stop offset="0" stop-color="#f6dcd3"/>
      <stop offset="1" stop-color="#fdf8f4"/>
    </linearGradient>
  </defs>
  <rect width="400" height="400" fill="url(#bd3)"/>
  <!-- cupcake -->
  <g transform="translate(200 220)">
    <ellipse cx="0" cy="86" rx="96" ry="22" fill="#e9c9c0" opacity="0.6"/>
    <path d="M-64 6 h128 l-16 80 h-96z" fill="#d9a679"/>
    <g stroke="#b9895f" stroke-width="4">
      <line x1="-40" y1="10" x2="-50" y2="82"/>
      <line x1="0" y1="10" x2="0" y2="86"/>
      <line x1="40" y1="10" x2="50" y2="82"/>
    </g>
    <path d="M-70 8 q-6 -46 38 -50 q14 -34 46 -14 q40 -10 40 30 q14 16 -6 34z" fill="#e9b8c4"/>
    <circle cx="0" cy="-58" r="9" fill="#b3261e"/>
    <g fill="#c9a24b"><circle cx="-30" cy="-18" r="3"/><circle cx="24" cy="-26" r="3"/><circle cx="40" cy="0" r="3"/></g>
  </g>
  <text x="200" y="362" text-anchor="middle" font-family="Georgia, serif" font-size="26" fill="#3a2e2a">Cupcakes</text>
</svg>
