<svg xmlns="http://www.w3.org/2000/svg" viewBox="0 0 400 400">
  <defs>
    <linearGradient id="bg2" x1="0" y1="0" x2="1" y2="1">
      <stop offset="0" stop-color="#e9c9c0"/>
      <stop offset="1" stop-color="#fbeee8"/>
    </linearGradient>
  </defs>
  <rect width="400" height="400" fill="url(#bg2)"/>
  <!-- mão estilizada com unhas pintadas -->
  <g transform="translate(120 120)">
    <g fill="#f0c9b8">
      <rect x="0" y="40" width="150" height="120" rx="40"/>
      <rect x="6" y="-10" width="28" height="90" rx="14"/>
      <rect x="40" y="-26" width="28" height="104" rx="14"/>
      <rect x="74" y="-20" width="28" height="98" rx="14"/>
      <rect x="108" y="-4" width="28" height="84" rx="14"/>
    </g>
    <g fill="#c97c6d">
      <rect x="8" y="-12" width="24" height="22" rx="11"/>
      <rect x="42" y="-28" width="24" height="22" rx="11"/>
      <rect x="76" y="-22" width="24" height="22" rx="11"/>
      <rect x="110" y="-6" width="24" height="22" rx="11"/>
    </g>
  </g>
  <circle cx="320" cy="90" r="6" fill="#c9a24b"/>
  <circle cx="300" cy="120" r="4" fill="#c9a24b"/>
  <text x="200" y="362" text-anchor="middle" font-family="Georgia, serif" font-size="26" fill="#3a2e2a">Esmaltação</text>
</svg>
