<svg xmlns="http://www.w3.org/2000/svg" viewBox="0 0 400 400">
  <defs>
    <linearGradient id="bg" x1="0" y1="0" x2="1" y2="1">
      <stop offset="0" stop-color="#f6dcd3"/>
      <stop offset="1" stop-color="#fdf8f4"/>
    </linearGradient>
  </defs>
  <rect width="400" height="400" fill="url(#bg)"/>
  <g fill="none" stroke="#c9a24b" stroke-width="2" opacity="0.7">
    <path d="M70 70 l6 14 14 6 -14 6 -6 14 -6 -14 -14 -6 14 -6z"/>
    <path d="M320 300 l5 11 11 5 -11 5 -5 11 -5 -11 -11 -5 11 -5z"/>
  </g>
  <!-- vidro de esmalte -->
  <g transform="translate(200 210)">
    <rect x="-46" y="-20" width="92" height="120" rx="20" fill="#c97c6d"/>
    <rect x="-46" y="-20" width="92" height="120" rx="20" fill="#ffffff" opacity="0.12"/>
    <rect x="-22" y="-58" width="44" height="42" rx="8" fill="#3a2e2a"/>
    <rect x="-10" y="-92" width="20" height="36" rx="6" fill="#3a2e2a"/>
    <ellipse cx="-22" cy="30" rx="10" ry="34" fill="#ffffff" opacity="0.18"/>
  </g>
  <text x="200" y="362" text-anchor="middle" font-family="Georgia, serif" font-size="26" fill="#3a2e2a">Unhas</text>
</svg>
